<?xml version="1.0" encoding="UTF-8"?>
<svg id="design" xmlns="http://www.w3.org/2000/svg" viewBox="0 0 169.71 128.56">
  <defs>
    <style>
      .cls-1 {
        fill: #fb9bcc;
      }
    </style>
  </defs>
  <g>
    <path class="cls-1" d="M159.67,24.24h-24.24c-4.49,0-8.43-2.98-9.66-7.29l-2.75-9.66c-1.23-4.31-5.17-7.29-9.66-7.29h-57.03c-4.49,0-8.43,2.98-9.66,7.29l-2.75,9.66c-1.23,4.31-5.17,7.29-9.66,7.29H10.04c-5.54,0-10.04,4.49-10.04,10.04v84.24c0,5.54,4.49,10.04,10.04,10.04h149.63c5.54,0,10.04-4.49,10.04-10.04V34.28c0-5.54-4.49-10.04-10.04-10.04ZM84.86,117.74c-24.36,0-44.17-19.81-44.17-44.17s19.82-44.17,44.17-44.17,44.17,19.81,44.17,44.17-19.81,44.17-44.17,44.17ZM137.57,54.91c-5.04,0-9.12-4.09-9.12-9.12s4.09-9.12,9.12-9.12,9.12,4.09,9.12,9.12-4.09,9.12-9.12,9.12Z"/>
    <path class="cls-1" d="M84.86,38.25c-19.47,0-35.31,15.84-35.31,35.31s15.84,35.31,35.31,35.31,35.31-15.84,35.31-35.31-15.84-35.31-35.31-35.31Z"/>
  </g>
  <rect class="cls-1" x="13.26" y="9.58" width="21.75" height="10.79" rx="3.35" ry="3.35"/>
</svg>