<?xml version="1.0" encoding="UTF-8"?>
<svg id="_レイヤー_1" data-name="レイヤー_1" xmlns="http://www.w3.org/2000/svg" version="1.1" viewBox="0 0 820 250">
  <!-- Generator: Adobe Illustrator 30.2.1, SVG Export Plug-In . SVG Version: 2.1.1 Build 1)  -->
  <defs>
    <style>
      .st0 {
        fill: #fff;
      }

      .st1 {
        fill: #e3007f;
      }
    </style>
  </defs>
  <polygon class="st1" points="0 155.72 236.93 101.55 273.2 0 0 .5 .42 132.04 0 155.72"/>
  <g>
    <path class="st1" d="M315.16,196.81h29.24c13.41,0,18.09-.15,24.87-1.21v26.53c-5.58-.6-13.11-.9-24.42-.9h-85.01c-13.57,0-17.63.15-24.27.75v-26.38c7.23.9,12.66,1.21,24.72,1.21h27.43v-57.12h-16.58c-14.17,0-17.79.15-24.42.75v-26.08c7.99,1.06,12.66,1.21,24.87,1.21h61.35c12.66,0,17.94-.3,24.87-1.21v26.08c-6.93-.6-10.25-.75-24.42-.75h-18.24v57.12Z"/>
    <path class="st1" d="M405.14,113.91c7.23,13.41,12.36,26.23,18.09,46.88l-26.08,7.99c-3.77-17.33-11.3-38.59-16.88-48.08l24.87-6.78ZM510.64,127.32c-.45,1.21-.75,2.26-.9,2.56-.15.6-.45,1.81-.75,3.62-4.22,19.59-9.5,33.91-17.18,47.33-12.06,21.71-36.02,42.66-64.21,55.92-5.12-9.95-8.44-14.17-18.39-24.12,18.09-6.48,30.9-14.32,43.41-26.08,14.32-13.57,23.51-29.99,28.04-50.04.9-4.07,1.51-8.44,1.51-11.3v-1.96l3.01.45-.15-.6-.45-1.06c-2.56-6.93-5.28-11.76-9.95-18.84l15.07-4.37c5.12,7.24,8.14,13.26,11.15,21.71l-11.61,3.77,21.4,3.01ZM445.53,106.82c6.18,10.55,12.96,27.28,17.94,45.07l-25.93,7.99c-4.07-16.43-9.5-31.5-16.73-46.42l24.72-6.63ZM511.4,93.41c5.28,7.39,7.84,12.36,11.3,21.25l-14.47,4.82c-3.77-9.5-6.33-14.62-11.15-21.86l14.32-4.22Z"/>
    <path class="st1" d="M566.86,104.86c-.6,6.93-.75,9.65-.75,20.2v29.99c0,10.7.15,15.52.75,21.55h-29.24c.75-5.43.9-10.7.9-22.01v-29.84c0-9.19-.15-13.26-.9-19.9h29.24ZM636.95,104.86c-.6,8.44-.75,10.7-.75,20.35v17.63c0,20.65-1.21,35.12-3.47,43.86-4.52,16.43-14.77,28.79-31.35,38.28-8.59,4.97-16.58,8.14-31.35,12.36-3.47-10.1-7.24-16.43-15.37-25.77,14.47-2.71,22.16-5.12,29.84-9.19,13.26-7.08,20.05-15.98,22.46-29.24.9-5.58,1.66-18.84,1.66-31.95v-15.68c0-11-.15-14.17-.9-20.65h29.24Z"/>
    <path class="st1" d="M679,108.78c18.99,11.15,28.79,18.09,41.45,29.54l-17.79,23.51c-13.11-13.72-25.92-23.66-41-31.8l17.33-21.25ZM663.17,202.38c15.37-1.21,31.2-4.97,45.37-10.85,18.99-7.84,32.56-19.14,44.16-37.23,6.33-9.65,10.4-17.94,14.77-29.54,7.38,8.89,10.85,11.91,22.16,20.2-13.72,29.69-28.04,47.48-49.14,61.04-16.28,10.55-30.6,16.13-58.63,22.61-5.88,1.36-6.78,1.51-10.85,2.71l-7.84-28.94Z"/>
  </g>
  <g>
    <path class="st0" d="M33.3,85.55c-.09,8.19-1,12.59-3.97,18.96-2.44-2.49-4.64-4.19-7.81-6.11,2.23-4.05,3.28-8.31,3.26-13.66.05-2.49-.3-6.8-.73-10.27-.02-.49-1.81-12.53-1.98-13.61-.27-1.72-1.06-5.36-1.43-6.62l9.11-1.44c.05,1.7.16,2.79.52,5.39.46,2.91.61,3.88.82,5.56l12.02-1.89-.71-4.53c-.54-3.4-.81-4.79-1.39-6.74l9-1.42c.04,1.98.19,3.34.75,6.84l.71,4.53,7.65-1.21c3.18-.5,5.64-1,7.28-1.48l1.31,8.3c-2.03.1-4.26.34-7.38.83l-28.19,4.44c.16,1.02.24,1.89.32,2.38.31,2.33.32,2.38.51,3.95l18.11-2.85c2.43-.38,4.03-.69,5.68-1.11.04,1.65.24,3.28.63,5.76l1.95,12.4c.59,3.72.89,5.27,1.5,7.39l-9.22,1.45c-.04-2.04-.26-3.77-.85-7.49l-1.61-10.24-15.85,2.5Z"/>
    <path class="st0" d="M89.14,87.97c.37,2.37.73,4.3,1.31,6.53l-8.79,1.38c-.1-2.03-.27-3.82-.69-6.47l-2.18-13.85c-.46-2.91-.59-3.72-.81-5.51-1.02,2.31-1.54,3.17-2.78,4.8-1.67-3.94-2.68-5.82-5.01-9.04,3.15-3.86,5.55-8.94,7.04-14.92.66-2.81.93-4.62.95-6.94l8.92.86c-.33,1.05-.56,2.08-.8,3.66-.29,1.65-1.18,5.16-2.07,8.23l4.93,31.26ZM118.42,81.64c.51,3.23.17,5.28-1.05,6.63-1.19,1.24-3.08,1.87-8.63,2.74-1.67.26-2.81.39-5.1.58-.95-3.22-1.73-5.03-3.77-8.13,2.98-.03,4.84-.15,6.45-.41,3.13-.49,3.69-.8,3.5-1.99l-3.49-22.15-12.29,1.94c-2.53.4-4.78.86-6.9,1.42l-1.31-8.3c2.08-.11,3.99-.3,6.63-.71l12.67-2-.51-3.23c-.42-2.7-.9-5-1.48-6.95l9-1.42c.06,2.14.32,4.15.78,7.06l.51,3.23.54-.08c2.37-.37,3.66-.63,5.18-1.15l1.3,8.25c-1.49.01-2.74.15-5.06.52l-.75.12,3.79,24.04ZM95.65,63.02c4.15,4.26,6.48,7.1,9.53,11.76l-6.81,5.49c-3.37-5.99-4.78-7.92-9.31-12.84l6.6-4.41Z"/>
    <path class="st0" d="M137.11,38.32c-.62,4.85-.74,10.01-.44,15.76.15,3.4.62,7.47,1.41,12.48,0,0,.08.49.37,1.99.38-2.49.88-4.61,1.7-7.06l6.8,2.13c-2.61,6.21-4.35,14.83-3.95,19.46l-8.63,1.69q-.34-1.11-1.43-4.14c-1.78-4.97-3.3-11.14-4.2-16.85-.93-5.93-1.12-8.5-1.33-20.34-.05-2.09-.13-2.91-.35-4.31l10.04-.81ZM140.91,47.33c2.83.05,5.94-.16,9.82-.77,1.99-.31,3.33-.58,4.87-.99-1.82-9.1-1.84-9.21-2.58-11.08l9.58-1.62c.05,1.04.07,1.48.16,2.07.03.21.08.54.22,1.01.21,1.02.67,3.54,1.39,7.4,3.06-.92,5.18-1.81,7.26-3.02l1.9,8.93c-.9.25-1.21.36-3.05.98-1.88.68-1.98.75-4.52,1.43.46,2.58.55,3.12.74,4.36,1.09,6.9.87,12.51-.67,16.46-1.72,4.52-4.01,7.48-9.01,11.53-2.97-2.74-5.02-4.18-8.51-6.01,5.22-3.31,8.27-7.1,9.22-11.23.62-2.75.49-5.99-.5-12.29,0-.05-.05-.32-.1-.65-2.08.49-3.42.76-5.73,1.12-2.05.32-3.78.54-5.69.73q-1.8.17-3.47.44l-1.33-8.79Z"/>
    <path class="st0" d="M203.55,60.66c-2.04,7.39-5.17,10.98-10.08,11.75-7.22,1.14-13.38-4.96-14.93-14.83-.99-6.31.26-12.36,3.61-17.42,3.93-5.92,10.34-9.75,18.26-11,7.22-1.14,13.97.29,18.62,3.86,4.03,3.12,6.68,8.06,7.64,14.15,1.1,7.01-.53,13.78-4.43,18.54-3.15,3.86-7.13,6.26-14.49,8.64-1.9-3.68-3.23-5.46-5.97-8.12,5.01-1.18,8.21-2.56,10.89-4.53,3.8-2.86,5.41-7.76,4.5-13.52-.72-4.58-2.92-7.99-6.42-9.87-1.57-.86-2.83-1.15-4.83-1.17.28,9.46-.46,16.7-2.37,23.52ZM191.17,42.39c-3.08,3.58-4.61,8.96-3.85,13.75.6,3.83,2.53,6.62,4.42,6.32,1.35-.21,2.45-2.32,3.42-6.67,1.12-5.15,1.7-11.65,1.45-17.08-2.21.68-3.81,1.76-5.44,3.67Z"/>
  </g>
</svg>