<?xml version="1.0" encoding="UTF-8"?>
<svg id="_レイヤー_1" data-name=" レイヤー 1" xmlns="http://www.w3.org/2000/svg" xmlns:xlink="http://www.w3.org/1999/xlink" viewBox="0 0 681 304">
  <defs>
    <style>
      .cls-1 {
        fill: #4f4411;
      }

      .cls-2 {
        fill: #f3b06b;
      }

      .cls-3 {
        stroke-width: 3px;
      }

      .cls-3, .cls-4, .cls-5 {
        fill: #fff;
      }

      .cls-3, .cls-5 {
        stroke: #fff;
        stroke-miterlimit: 10;
      }

      .cls-6 {
        fill: #4f4412;
      }

      .cls-7 {
        fill: #f6e399;
      }

      .cls-8 {
        fill: #404da7;
      }

      .cls-9 {
        fill: #41b7ce;
      }

      .cls-10 {
        fill: #fb9bcc;
      }

      .cls-11 {
        fill: #f44666;
      }

      .cls-12 {
        fill: #3db4c9;
      }

      .cls-13 {
        fill: #f7af6b;
      }

      .cls-14 {
        fill: #4f4413;
      }

      .cls-5 {
        stroke-width: 5px;
      }

      .cls-15 {
        fill: #633ca1;
      }

      .cls-16 {
        fill: #40ba71;
      }

      .cls-17 {
        fill: #f2cf99;
      }

      .cls-18 {
        fill: url(#_名称未設定グラデーション);
      }

      .cls-19 {
        fill: #4f4410;
      }
    </style>
    <linearGradient id="_名称未設定グラデーション" data-name="名称未設定グラデーション" x1="1372.22" y1="536.83" x2="1370.59" y2="545.95" gradientTransform="translate(-1297.17 -625.75) scale(1.38 1.27)" gradientUnits="userSpaceOnUse">
      <stop offset="0" stop-color="#f3b06b"/>
      <stop offset=".38" stop-color="#f3b16d" stop-opacity=".62"/>
      <stop offset=".53" stop-color="#f3b573" stop-opacity=".47"/>
      <stop offset=".64" stop-color="#f4bb7f" stop-opacity=".36"/>
      <stop offset=".74" stop-color="#f5c590" stop-opacity=".26"/>
      <stop offset=".82" stop-color="#f6d1a6" stop-opacity=".18"/>
      <stop offset=".89" stop-color="#f9e0c1" stop-opacity=".11"/>
      <stop offset=".95" stop-color="#fcf1e2" stop-opacity=".05"/>
      <stop offset="1" stop-color="#fff" stop-opacity="0"/>
    </linearGradient>
  </defs>
  <g id="_レイヤー_1-2" data-name=" レイヤー 1-2">
    <rect class="cls-10" width="681" height="304"/>
  </g>
  <rect class="cls-16" x="605.73" y="202.57" width="54.9" height="14.75"/>
  <rect class="cls-8" x="610.64" y="217.32" width="54.9" height="14.75"/>
  <rect class="cls-17" x="599.99" y="224.7" width="54.9" height="14.75"/>
  <rect class="cls-11" x="605.73" y="239.45" width="54.9" height="14.75"/>
  <rect class="cls-15" x="618.02" y="246.82" width="54.9" height="14.75"/>
  <g id="_レイヤー_4" data-name=" レイヤー 4">
    <g>
      <g>
        <path class="cls-4" d="M193.28,110.75c4.65-9.3,5.14-21.89,3.28-37.88l5.85-.05s.77,8.45.55,9.69h8.48l-.33-10.49,6.24-.17-.65,9.24s11.32-.28,11.75-.28l-.17,6.69s-22.7.17-24.72.17c0,0-.38,4.53-.6,5.33l19.2-.05s1.04,16.44.49,19.61l-6.24-.23s.22-9.13.22-12.53l-14-.45c-.65,4.53-4.53,9.19-9.34,11.4h0Z"/>
        <path class="cls-4" d="M236.05,91.35c6.18-5.33,12.25-12.58,12.74-15.48l5.08,4.48s-1.26,4.48-4.76,7.88l1.14,22.68-4.86.11.11-20.92s-5.14,1.65-9.46,1.25ZM260.34,101.79s-2.35-4.19-3.55-7.6l5.03-2.21s1.86,3.69,3.39,6.35l-4.86,3.46ZM257,88.3l.1-7.55,14.05.39-1.14-8.85,7.27.17-.44,8.17s6.24-.45,7.06-.57l-.17,7.42h-7.11s.1,23.82.38,27.96c0,0-6.89-6.64-10.44-9.98,0,0,4.48.34,5.41.05,0,0,0-16.1-.17-18.26,0,.03-12.74,1.16-14.82,1.05h0Z"/>
        <path class="cls-4" d="M292.05,81.27l6.72.45s-1.53,13.33.38,16.79l4.54-4.03s-2.85,8.45-3.89,12.81c-6.34-5.5-9.07-9.01-7.76-26.02ZM323.38,76.22s-.17,5.96-.05,7.71l6.24-.23.11,7.6-7.38-.34c2.13,8.96.38,18.26-11.43,20.64,5.96-8.33,6.24-15.65,6.02-21.83,0,0-5.63.62-9.41,1.02l-.22-6.35s5.08.05,9.02-.17l-.44-8.1,7.54.05h0Z"/>
        <path class="cls-4" d="M344.22,91.19c-.17-1.7,4.38-3.75,5.69-3.07,1.42.79,2.63,3.91,2.46,5.55-.1.85-3.77,2.66-4.86,2.61-1.59-.05-3.07-3.4-3.28-5.1Z"/>
        <path class="cls-4" d="M381.57,83.13l-11.32-.34c-.11-2.99-.17-5.1-.17-6.35,0-1.87,30.51-1.02,33.53-1.59l-.22,8.68s-10.23.34-12.47.17c0,0,.6,25.29.87,28.58l-8.37.05s.55-15.08.93-22c-3.17,3.12-10.12,6.24-15.91,6.35,0,0,12.58-10.25,13.13-13.55ZM406.4,92.89l-4.04,5.5s-4.54-4.14-6.56-6.35l3.77-3.75s6.83,4.59,6.83,4.59Z"/>
        <path class="cls-4" d="M403.28,103.15l.05-5.5s9.08.17,12.09.17c0,0,.93-3.23.82-4.19l6.29.85s-.65,3.29-1.09,4.03c0,0,20.51-.45,22.42-.79l-.22,6.07s-9.46-.11-10.17-.11c0,0-.93,2.95-1.91,4.31,0,0,5.41,1.07,7.71,1.64l-2.08,6.41s-5.41-2.66-9.13-4.08c0,0-1.31,3-10.01,3.29,0,0,4.16-2.78,4.93-4.71,0,0-7.82-1.48-11.54-1.93l2.85-5.73s-8.43.34-11,.29h0ZM409.4,92.55s-.49-9.87-.22-11.34c2.03-.28,7.44-.73,10.11-.91l.33-3.12s-6.94.11-9.13,0l-.1-5.73c18.05-.23,19.58-.17,30.35,0l-1.09,5.78s-6.62-.17-7.76-.17l.1,2.38s5.36.39,8.7.79c0,0-.17,8.39-1.09,12.47,0,0-26.8,0-30.19-.17h0ZM414.87,84.55l.1,2.38c.93.11,5.08-.28,5.08-.28-.11-.91-.11-2.38-.11-2.38l-5.07.28ZM418.64,105.47c3.77.51,7.33.96,7.33.96.93-1.07,1.53-3.34,1.53-3.34l-7.66-.17-1.2,2.55h0ZM423.95,87.11c1.31.11,4.48-.34,4.48-.34v-2.79l-4.32.23c-.05.57-.16,2.9-.16,2.9ZM424.12,77.18l.27,2.5c.87,0,2.46-.05,2.46-.05l-.1-2.38-2.63-.06ZM431.99,84.16l.1,2.5c1.69.23,4.1.11,4.1.11v-2.5l-4.21-.11Z"/>
        <path class="cls-4" d="M469.56,96.57l.82,15.26s-12.03.23-15.37-.51l.22-14.86s10.56-.3,14.33.1ZM465.18,102.24l-5.03-.28-.1,4.31c2.57.28,5.41-.51,5.41-.51.1-1.08-.28-3.52-.28-3.52ZM465.35,72.24s13.89-.28,18.59.23l.05,18.2s-13.18-.45-18.65-.28c0,0-.49-10.83,0-18.15ZM471.58,84.72c3.28.45,6.24-.05,6.24-.05l-.05-6.07c-2.46-.28-5.75-.17-5.75-.17l-.44,6.29ZM492.59,95.72s1.64,12.36.87,15.76c-12.31.62-12.31.51-14.82-.11,0,0-.1-13.38.1-15.59,0,0,12.52-.17,13.84-.06ZM488.05,105.93c-.27-1.76-.33-4.37-.33-4.37l-3.12-.11v4.76c2.08.29,3.45-.28,3.45-.28Z"/>
      </g>
      <g>
        <path class="cls-4" d="M33.18,71.44c5.74,8.93,10.41,13.4,14,13.4h75.15v-7.59c0-7.44-5.75-14.88-17.22-22.32h49.95c-11.48,7.44-17.22,14.88-17.22,22.32v7.59h34.23c3.59,0,8.25-4.46,14-13.4v41.08c-5.75-8.93-10.41-13.4-14-13.4h-34.23v51.12c2.16,9.08,3.23,18.45,3.23,28.13,0,22.63-4.81,39.93-14.43,51.91-9.62,11.98-25.4,19.83-47.37,23.55l-2.16-15.85c17.08-2.83,29.35-8.3,36.82-16.41,7.46-8.11,11.48-19.31,12.06-33.61v-2.9h1.72c-5.31,10.27-14.43,15.41-27.34,15.41-10.19,0-18.66-4.17-25.4-12.51-6.75-8.33-10.12-18.68-10.12-31.03s3.37-22.66,10.12-30.92c6.74-8.26,15.21-12.39,25.4-12.39,9.33,0,17.22,3.42,23.68,10.27h-8.61c4.59-7.44,6.89-14.88,6.89-22.32v-2.45H47.17c-3.59,0-8.25,4.46-14,13.4v-41.08h0ZM102.29,185.3c6.03,0,11.13-2.75,15.29-8.26,4.17-5.5,6.24-12.2,6.24-20.1s-2.08-14.55-6.24-19.98c-4.17-5.43-9.26-8.15-15.29-8.15s-11.13,2.72-15.29,8.15c-4.17,5.43-6.24,12.1-6.24,19.98s2.08,14.59,6.24,20.1c4.17,5.5,9.27,8.26,15.29,8.26Z"/>
        <path class="cls-5" d="M151.82,196.78c11.55-3.69,20.16-5.54,25.84-5.54,14.58,0,21.88,7.71,21.88,23.13,0,9.28-3.09,16.3-9.26,21.03-6.17,4.73-15.46,7.1-27.86,7.1l-.34-6.25c10.79,0,18.66-1.77,23.6-5.31,4.93-3.55,7.41-8.86,7.41-15.94,0-5.83-1.29-10.17-3.88-13s-6.58-4.24-11.97-4.24c-4.88,0-12.92,1.79-24.11,5.36l-1.3-6.35h0Z"/>
        <path class="cls-3" d="M257.72,147.39c-.52-5.27-.91-10.67-1.16-16.21l9.17-.53c.34,5.18.82,10.67,1.42,16.48,8.61-.45,17.96-1.02,28.03-1.74l.38,8.84c-12.84.72-21.83,1.21-27,1.48.86,5.81,2.03,11.56,3.48,17.28,11.11-.53,19.68-.98,25.71-1.34l.26,8.58c-5.6.36-13.22.85-22.86,1.48,2.32,7.5,5.86,15.63,10.59,24.38l-8.01,6.43c-10.08-5.98-19.34-8.98-27.77-8.98-13.78,0-20.67,5.14-20.67,15.41,0,6.61,2.28,11.52,6.85,14.73,4.57,3.21,12.1,4.82,22.61,4.82,7.49,0,15.89-.93,25.2-2.81l1.29,8.98c-9.21,1.78-18.04,2.68-26.49,2.68-26.36,0-39.54-9.47-39.54-28.4,0-6.97,2.5-12.71,7.49-17.21,5-4.51,12.74-6.77,23.26-6.77,7.49,0,14.99,1.96,22.48,5.89l-.38-.27c-2.24-5.45-4.44-11.65-6.58-18.62-18.6.72-36.3,1.07-53.1,1.07v-8.71c18.17,0,34.84-.31,50-.93-1.21-5.18-2.28-10.99-3.23-17.41-16.54.63-30.88.93-43.02.93v-8.71c14.2-.02,28.07-.29,41.59-.82h0Z"/>
        <path class="cls-3" d="M305.23,137.08h30.23c-6.89,4.46-10.33,8.93-10.33,13.4v10.44c0,4.46,1.38,8.93,4.13,13.4h-5.3c3.44-10.72,8.29-19.15,14.53-25.32,6.24-6.17,12.9-9.24,19.96-9.24,8.35,0,14.86,3.8,19.51,11.39,4.65,7.59,6.98,18.44,6.98,32.55,0,21.7-4.76,37.64-14.28,47.82-9.52,10.18-24.65,15.27-45.41,15.27l-.26-9.64c17.91,0,30.71-4.2,38.37-12.59,7.67-8.39,11.5-22.02,11.5-40.85,0-11.16-1.48-19.58-4.45-25.25-2.97-5.67-7.21-8.51-12.72-8.51-7.49,0-14.62,5.49-21.38,16.48-6.76,10.99-10.53,24.24-11.3,39.79h-19.78c6.89-4.46,10.33-8.93,10.33-13.4v-42.33c0-4.49-3.44-8.95-10.33-13.41h0Z"/>
        <path class="cls-3" d="M438.02,137.08c-5.08,15.63-10.98,34.56-17.7,56.8h-1.16c4.82-7.68,10.21-11.52,16.15-11.52,4.48,0,8.03,2.41,10.65,7.23,2.63,4.82,4.54,12.19,5.75,22.1,1.29,9.11,2.59,15.59,3.88,19.42,1.29,3.84,3.06,5.76,5.3,5.76,2.93,0,5.89-2.99,8.92-8.98,3.01-5.98,5.86-15.22,8.52-27.73l8.52,2.54c-3.36,15.99-7.21,27.2-11.56,33.62-4.35,6.43-9.2,9.64-14.53,9.64-4.91,0-8.72-2.48-11.43-7.43-2.72-4.96-4.8-12.88-6.26-23.78-1.21-8.39-2.45-14.42-3.75-18.09-1.29-3.66-2.93-5.49-4.91-5.49-4.65,0-9.33,4.22-14.02,12.66-4.7,8.44-10.23,22.89-16.6,43.33l-8.65-3.34c9.05-29.56,20.54-66.17,34.5-109.85l8.39,3.08h0Z"/>
      </g>
    </g>
    <path class="cls-4" d="M58.08,36.59s-1.96,7.97-5.47,11.48c-3.51,3.51-11.41,5.76-11.41,5.76,0,0,7.63.17,11.2,4.92s5.56,14.71,5.56,14.71c0,0,1.71-10.31,5.72-14.01,4.33-3.98,11.89-5.55,11.89-5.55,0,0-8.22-1.12-11.82-5.4-4.25-5.05-5.67-11.92-5.67-11.92Z"/>
    <path class="cls-4" d="M174.24,135.94s-1.96,7.97-5.47,11.48-11.41,5.76-11.41,5.76c0,0,7.63.17,11.2,4.92s5.56,14.71,5.56,14.71c0,0,1.71-10.31,5.72-14.01,4.33-3.98,11.89-5.55,11.89-5.55,0,0-8.22-1.12-11.82-5.4-4.25-5.05-5.67-11.92-5.67-11.92Z"/>
    <path class="cls-4" d="M483,191.25s1.96-7.97,5.47-11.48c3.51-3.51,11.41-5.76,11.41-5.76,0,0-7.63-.17-11.2-4.92-3.57-4.74-5.56-14.71-5.56-14.71,0,0-1.71,10.31-5.72,14.01-4.33,3.98-11.89,5.55-11.89,5.55,0,0,8.22,1.12,11.82,5.4,4.26,5.05,5.67,11.92,5.67,11.92h0Z"/>
  </g>
  <path class="cls-4" d="M522.67,215.5c-12.21,12.21-20.17,23.72-7.64,37.86,12.53,14.14,11.6,11.12,32.65,11.12s35.95-16.59,26.05-30.91c-9.9-14.33-20.99-19.94-31.96-20.84-10.97-.91-8.34-5.24-5.56-13.2,2.78-7.96-5.56-12.85-8.68-6.6-3.13,6.25-1.89,5.42-9.03,4.17-7.14-1.26-12.12.73-7.64,6.25s11.81,12.15,11.81,12.15h0Z"/>
  <g id="_レイヤー_3" data-name=" レイヤー 3">
    <g>
      <path class="cls-12" d="M563.5,208.48s.84,2.61-2.93,12.15c-3.78,9.54-3.28,11.2-8.28,15.81-5.01,4.6-3.88,3.27,3.25,3.67s11.64.21,17.83-2.22c6.19-2.42-9.86-29.4-9.86-29.4Z"/>
      <path class="cls-13" d="M571.11,228.42c.09-2.08-1.33-3.81-3.18-3.88-1.16-.04-2.2.58-2.84,1.57.37,1.67.67,3.27,1.24,5.61.39.2.81.32,1.28.34,1.84.06,3.41-1.57,3.5-3.64Z"/>
      <path class="cls-13" d="M564.5,220.15c-.38-1.41-1.26-2.53-2.3-3.11.03.09.06.18.09.26.99,2.55,1.61,4.41,2.06,5.95.36-.88.44-1.98.14-3.1Z"/>
      <ellipse class="cls-13" cx="569.39" cy="218.24" rx="4.5" ry="6.47" transform="translate(-38.92 175.91) rotate(-16.99)"/>
      <path class="cls-13" d="M563.96,207.13c-.58-1.43-1.47-2.62-2.48-3.45-.64,3.67-.76,7.53.06,11.08.22-.03.44-.07.65-.14,2.34-.81,3.14-4.15,1.78-7.48h0Z"/>
      <ellipse class="cls-13" cx="569.09" cy="205.34" rx="4.47" ry="6.51" transform="translate(-33.39 260.57) rotate(-25.08)"/>
      <g>
        <path class="cls-7" d="M547.51,175.29c-1.81-1.25-1.56-4.35.55-6.91s5.28-3.62,7.08-2.37c1.41.97,1.56,3.06.57,5.15l3.21-2.72c-.4-.03-.78-.14-1.12-.32-1.95-1.05-2.11-4.14-.35-6.92,1.53-2.42,4.01-3.79,5.92-3.42l-.31-3.77s-2.27,1.92-5.32,4.47c-.19.77-.53,1.55-1.01,2.31-1.55,2.44-4.05,3.82-5.97,3.4-.88.71-1.75,1.4-2.58,2.06-.1.77-.45,1.6-1.06,2.34-1.23,1.5-3.09,2.18-4.44,1.71-.19.12-.36.22-.52.31-3.81,2.05-5.16,2.8-2.97,5.82.08.11.18.24.29.36-.46-1.18.11-2.7,1.5-3.65,1.63-1.13,3.77-1.05,4.78.17,1,1.22.49,3.13-1.15,4.26-1.22.84-2.73,1.01-3.83.54,3.58,3.27,10.92,8.25,13.39,12.38,2.95,4.91,1.67,8.09,1.67,8.09l8.56-8.66-12.9-14.58c-1.48.63-2.94.66-3.97-.04h0Z"/>
        <path class="cls-13" d="M539.45,176.79c.08.21.19.43.35.61.25.31.57.54.94.71-.53-.48-.96-.92-1.3-1.32Z"/>
        <path class="cls-13" d="M544.56,177.57c1.63-1.13,2.15-3.04,1.15-4.26-1-1.22-3.14-1.3-4.78-.17-1.38.95-1.95,2.47-1.5,3.65.33.4.78.83,1.3,1.31,1.11.48,2.61.31,3.83-.53Z"/>
        <path class="cls-13" d="M547.09,168.6c.61-.74.96-1.57,1.06-2.34-2.29,1.79-4.29,3.29-5.52,4.06,1.36.46,3.22-.22,4.45-1.72Z"/>
        <path class="cls-13" d="M555.71,171.16c.99-2.08.82-4.17-.57-5.15-1.81-1.25-4.97-.19-7.08,2.37s-2.35,5.66-.55,6.91c1.02.71,2.48.67,3.94.04l-.29-.32,4.55-3.85h0Z"/>
        <path class="cls-13" d="M556.71,160.8c.48-.77.81-1.55,1.01-2.31-2.11,1.75-4.59,3.8-6.98,5.72,1.92.41,4.42-.96,5.97-3.4Z"/>
        <path class="cls-13" d="M557.45,161.19c-1.76,2.77-1.6,5.87.35,6.92.34.19.72.29,1.12.32l4.96-4.2-.53-6.46c-1.91-.37-4.38,1-5.91,3.42h0Z"/>
        <path class="cls-19" d="M564.79,189.75l3.3,5.12-8.45,8.19-3.43-4.83s5.39-9.57,8.58-8.48Z"/>
      </g>
      <path class="cls-6" d="M589.98,87.19c-.7,2.43,7.76-19.93,7.76-19.93,0,0,3.72-1.99,11.99,4.7,8.27,6.69,6.4,11.11,17.11,15.23s24.22,4.03,28.92,1.13,5.19,10.52-9.53,19.61c-14.72,9.08-28.84,13.81-36.5,11.99-7.66-1.82-1.19-7.19-11.28-8.26"/>
      <g>
        <path class="cls-7" d="M603.34,99.2v-.56c0-6.87-4.42-3.36,0,.56Z"/>
        <path class="cls-7" d="M574.08,68.89l-.12.51s.14-.25.12-.51Z"/>
        <path class="cls-7" d="M604.96,82.42c-5.65-7-5.83-11.97-2.17-18.71,3.67-6.75,5.04-9.47,8.28-12.09,3.24-2.62,2.17-1.82-2.17-4.97-4.32-3.15-14.68-1.79-13.15,2.82,1.53,4.61,1.5,3.96-3.79,12.75-5.28,8.79-9.01,7.12-9.01,7.12,0,0,2.25-11.79,3.79-14.6,2.02-3.67,1.21-6.81.69-8.23-.86-2.41-2.41-3.85-9.63-.66-6.51,2.88-.8,5.67.23,6.23l-3.97,16.83c.02.26-.12.51-.12.51l.12-.51c-.03-.43-.47-.88-2.68-.19.51.13.91.36,1.13.7,1.11,1.68-2.14,5.37-7.26,8.23s-10.17,3.81-11.29,2.12c-.27-.41-.28-.93-.08-1.52-2.21,1.68-3.42,3.05-4.22,4.32,1.76-1.55,3.79-2.2,4.6-1.45s.06,2.71-1.72,4.36-3.91,2.36-4.75,1.58c-.09-.09-.17-.2-.22-.31-1.1,2.05-2.95,4.42-8.05,7.94-14,9.65-31.96,8.17-20.54,20.03s6.21,18.5,24.33,15.57c18.12-2.93,23.72-11.25,26.31-3.64,2.12,6.22,1.1,10.05.39,13.93,1.04,1.18,1.7,2.99,1.7,5.02,0,3.55-2.03,6.43-4.53,6.43h-.05c-1.52,4.21-3.24,8.39-3.64,10.05-.72,2.98-3.17,16.07,17.66,16.89,9.23.37,15.7-1.59,19.83-5.65-4.91-1.04-8.64-6.13-8.64-12.27,0-6.88,4.69-12.46,10.48-12.46,1.22,0,2.4.26,3.49.71-.04-.32-.06-.64-.11-.97-.02-.13-.03-.26-.05-.39-.24.05-.47.09-.72.09-2.5,0-4.53-2.88-4.53-6.43,0-3.26,1.71-5.95,3.92-6.36-.1-1.23-.2-2.46-.3-3.67-.98,1.4-2.25,2.25-3.64,2.25-3.1,0-5.62-4.23-5.62-9.44s2.52-9.44,5.62-9.44c1,0,1.94.44,2.76,1.22-.04-.91-.06-1.8-.09-2.67-.24.06-.49.09-.75.09-2.5,0-4.53-2.88-4.53-6.43s2.03-6.43,4.53-6.43c.17,0,.33.02.5.04,0-.54,0-1.05,0-1.54-4.42-3.93,0-7.43,0-.56v.56c1.27,1.13,3.27,2.29,6.3,3.25,13.63,4.3,19.82-.79,22.71-5.3,2.9-4.53-21.73-7.75-27.37-14.75h0ZM588.19,117.01c2.5,0,4.53,2.88,4.53,6.43s-2.03,6.43-4.53,6.43-4.53-2.88-4.53-6.43,2.02-6.43,4.53-6.43ZM571.09,134.61c0-5.76,3.08-10.42,6.89-10.42s6.89,4.66,6.89,10.42-3.08,10.42-6.89,10.42-6.89-4.67-6.89-10.42ZM580.04,171.51c-5.79,0-10.48-5.58-10.48-12.46s4.69-12.46,10.48-12.46,10.48,5.58,10.48,12.46-4.69,12.46-10.48,12.46ZM599.8,140.78c0,5.45-3.18,9.88-7.09,9.88s-7.09-4.42-7.09-9.88,3.18-9.88,7.09-9.88,7.09,4.42,7.09,9.88ZM594.07,117.93c-1.75,0-3.18-2.16-3.18-4.82s1.42-4.82,3.18-4.82,3.18,2.16,3.18,4.82-1.43,4.82-3.18,4.82Z"/>
        <path class="cls-13" d="M600.92,114.91c-3.1,0-5.62,4.23-5.62,9.44s2.52,9.44,5.62,9.44c1.39,0,2.66-.84,3.64-2.25-.42-5.49-.68-10.71-.87-15.42-.82-.77-1.77-1.22-2.77-1.22Z"/>
        <ellipse class="cls-13" cx="588.19" cy="123.44" rx="4.53" ry="6.43"/>
        <ellipse class="cls-13" cx="577.99" cy="134.61" rx="6.89" ry="10.42"/>
        <ellipse class="cls-2" cx="592.72" cy="140.78" rx="7.09" ry="9.88"/>
        <ellipse class="cls-2" cx="580.04" cy="159.05" rx="10.48" ry="12.46"/>
        <path class="cls-2" d="M592.36,161.03c0,6.13,3.73,11.23,8.64,12.27,5.04-4.96,6.56-13.08,5.33-24.01-1.09-.46-2.27-.71-3.49-.71-5.79,0-10.48,5.58-10.48,12.46Z"/>
        <path class="cls-13" d="M571.73,145.58c0-2.03-.67-3.84-1.7-5.02-.16.87-.31,1.74-.39,2.63-.21,2.16-1.29,5.5-2.49,8.82h.05c2.51,0,4.54-2.88,4.54-6.43h0Z"/>
        <path class="cls-13" d="M600.92,141.59c0,3.55,2.03,6.43,4.53,6.43.25,0,.49-.03.72-.09-.54-4.28-.97-8.55-1.32-12.71-2.22.43-3.92,3.11-3.92,6.37h0Z"/>
        <path class="cls-13" d="M598.31,107.13c0,3.55,2.03,6.43,4.53,6.43.26,0,.5-.03.75-.09-.17-5.07-.23-9.43-.24-12.73-.17-.03-.33-.04-.5-.04-2.51,0-4.54,2.88-4.54,6.43h0Z"/>
        <ellipse class="cls-13" cx="594.07" cy="113.11" rx="3.18" ry="4.82"/>
        <path class="cls-13" d="M553.99,79.76c1.11,1.68,6.16.73,11.29-2.12,5.13-2.85,8.37-6.54,7.26-8.23-.22-.34-.61-.57-1.13-.7-2.04.64-5.58,2.25-11.68,5.76-2.49,1.43-4.37,2.66-5.81,3.77-.2.58-.19,1.11.07,1.51h0Z"/>
        <path class="cls-13" d="M552.56,85.45c1.79-1.64,2.55-3.59,1.72-4.36-.81-.75-2.84-.09-4.6,1.45-.92,1.43-1.31,2.73-2.09,4.18.06.12.13.22.22.31.84.77,2.96.07,4.75-1.57h0Z"/>
        <path class="cls-18" d="M573.96,69.41l25.84-.08s8.03-15.1,11.27-17.71c3.24-2.62,2.17-1.82-2.17-4.97-4.32-3.15-14.68-1.79-13.15,2.82,1.53,4.61,1.5,3.96-3.79,12.75-5.28,8.79-9.01,7.12-9.01,7.12,0,0,2.25-11.79,3.79-14.6,2.02-3.67,1.21-6.81.69-8.23-.86-2.41-2.41-3.85-9.63-.66-6.51,2.88-.8,5.67.23,6.23l-4.08,17.33h0Z"/>
        <path class="cls-1" d="M576.44,85.83c-.82-.09-1.67.06-2.48.2-1.42.28-2.65.6-3.59,1.04-.03,0-.05.02-.06.03-.22.07-.45.15-.67.26-.54.29-.88.46-1.3.74-.34.22-.79.46-1.18.81-.33.35-.59.76-.75,1.2.32-.5.73-.98,1.22-1.34.74-.5,1.38-.76,2.02-1.12.3-.19,1.73-.71,1.95-.79.87-.19,2.49-.65,3.82-.64,1.64.28,3.14,1.05,4.62,1.74-1.06-.86-2.23-1.75-3.6-2.12h0Z"/>
        <path class="cls-1" d="M567.09,90.27c-.43.33-1.02.37-1.53.54-.14.03-.3.07-.44.1.29-.08.57-.16.85-.25-1.62.4-2.8.48-4.19.48-.44-.02-.85-.04-1.17-.08-.56-.09-1.12-.25-1.73-.37-.03-.02-.06-.03-.09-.05-.02,0-.04.02-.06.02-.05,0-.08-.02-.13-.03-.53.08-1.11.23-1.53.56-.03.04-.02.07.03.09.23.12.49.17.75.2.98.18,1.99.22,3,.16.89-.02,1.77-.1,2.65-.25,1.08-.2,2.15-.51,3.18-.88.21-.07.41-.18.53-.36h0s-.08.08-.12.1h0Z"/>
        <g>
          <path class="cls-1" d="M590.26,101.7c-1.17.48-2.08-.48-3-1-.52-.31-.79-.86-1.06-1.36-.08-.21-.1-.43-.23-.63-.18-.29-.23-.62-.31-.94-.06-.22-.09-.5-.34-.61-.4-.2-.91.04-1.32.14-.32.12-.67.23-.94.43-.38-.11-.76-.23-1.14-.31-3.02-.7-5.66-2.25-8.3-3.69-2.03-1.34-4.28-2.35-6.53-3.34,1.25.98,2.57,1.88,3.78,2.82,1.27,1.14,2.61,1.97,4.17,2.78,2.1,1.16,4.53,1.65,6.94,1.94.29.04.58.09.88.12-.02.09-.02.15-.06.21-.85,1.51-1.89,2.33-2.83,2.81-.91.53-1.31.88-1.81,1.14-.05.02-.1.04-.17.06-.02,0-.03,0-.02,0h.03,0c-1.61.25-4.62.05-7.49-1.45-.93-.59-2.27-1.51-2.99-2.68-1.17-2.21-.62-4.81-.31-7.18-1.13,2.59-2.8,5.5-1.81,8.29,2.36,4.57,8.98,5.38,13.65,3.33.61-.24,1.23-.48,1.79-.83.56-.31,1.06-.73,1.59-1.08.02,0,.03-.02.05-.03,0,0-.02,0-.03.02.02,0,.03-.02.05-.03s0,0,0,0c.55-.31,1.06-.7,1.5-1.15.51.78,1.25,1.45,2.18,1.74,1.17.37,2.37,1.07,3.65.65.37-.11.74-.21,1.12-.29-.23.07-.45.09-.67.13h0Z"/>
          <path class="cls-1" d="M577.95,102.27l-.19.02s.13,0,.19-.02Z"/>
          <path class="cls-1" d="M582.47,100.65s0,0-.02,0c0,0,0,0,.02,0Z"/>
        </g>
        <path class="cls-1" d="M568.03,91.22l15.63,7.57s-7.3,6.46-11.89,3.59c-9-5.61-3.73-11.16-3.73-11.16Z"/>
        <ellipse class="cls-4" cx="567.2" cy="93.32" rx="2.75" ry="2.53"/>
        <ellipse class="cls-4" cx="580.04" cy="101.3" rx=".94" ry=".87"/>
        <path class="cls-4" d="M576.52,104.25s.65-2.42,1.81-3.48,3.77-1.75,3.77-1.75c0,0-2.52-.05-3.69-1.49s-1.83-4.46-1.83-4.46c0,0-.56,3.13-1.89,4.24-1.43,1.21-3.92,1.68-3.92,1.68,0,0,2.71.34,3.91,1.63,1.4,1.53,1.86,3.62,1.86,3.62h0Z"/>
        <ellipse class="cls-13" cx="576.42" cy="74" rx="7.11" ry="3.54" transform="translate(31.78 276.73) rotate(-27.73)"/>
        <ellipse class="cls-13" cx="565.67" cy="80.81" rx="4.62" ry="2.01" transform="translate(28.81 276.49) rotate(-28.16)"/>
        <ellipse class="cls-13" cx="557.55" cy="83.85" rx="2.81" ry="1.59" transform="translate(78.04 380.44) rotate(-40.29)"/>
        <path class="cls-13" d="M528.1,121.01s-.11,2.93,5.91,1.95c6.03-.98,8.78-4.59,8.78-4.59,0,0-11.81,3.62-14.69,2.65Z"/>
      </g>
      <path class="cls-6" d="M551.54,78.62s12.05-3.2,28.45,2.1c16.39,5.3,21.48,20.88,27.09,22.99,5.61,2.1,10.06,2.26,10.06,2.26,0,0-9.48-7.53-9.48-13.12s-6.73-24.77-14.9-28.17c-8.17-3.39-34.18-5.01-41.22,13.93Z"/>
      <g>
        <path class="cls-7" d="M617.44,252.08c-4.63-4.86-6.5-4.89-8.28-13.75-1.79-8.86-.66-22.47-1.26-29.81-.6-7.33.64-19.7-9.19-21.69-9.82-1.99-27.62-2.01-31.17,1.99-2.09,2.36-4.91,8.29-6.05,14.85,1.01.83,1.9,2.02,2.48,3.45,1.36,3.33.56,6.68-1.78,7.49-.21.08-.43.11-.65.14.18.78.41,1.55.68,2.3,1.04.58,1.92,1.7,2.3,3.11.3,1.12.22,2.22-.14,3.1.31,1.05.53,1.96.73,2.85.64-.99,1.68-1.61,2.84-1.57,1.84.07,3.26,1.8,3.18,3.88-.09,2.08-1.66,3.71-3.5,3.64-.45-.02-.89-.14-1.28-.34.19.74.4,1.56.65,2.48,2.12,7.64,1.07,6.91-.36,13.91-1.43,7-4.37,8.78-5.04,12.09-.68,3.31,10.63,1,10.63,1,0,0,5.77-3.67,5.04-9.94-.72-6.26-.44-19.21,1.08-30.96,1.52-11.76,2.09-13.63,7.92-12.91,5.84.71,9.31,13.07,10.27,20.36.96,7.29,1.58,13.85,3.96,19.7,2.38,5.85,4.1,11.11,5.41,12.42s.85,2.65,8.11,1.99c7.26-.69,8.05-4.93,3.42-9.79h0ZM566.62,199.34c2.34-.81,5.34,1.23,6.7,4.56,1.36,3.33.56,6.68-1.78,7.49-2.34.81-5.34-1.23-6.7-4.56-1.36-3.33-.56-6.68,1.78-7.49ZM571.04,224.51c-2.43.54-5.15-1.81-6.06-5.26-.92-3.45.31-6.69,2.74-7.23,2.43-.54,5.15,1.81,6.06,5.26s-.31,6.69-2.74,7.23Z"/>
        <path class="cls-19" d="M558.88,267.06l2.11-6.53,12.99-.82-.99,6.28s-12.68,4.19-14.11,1.07Z"/>
        <path class="cls-19" d="M622.36,265.6l-2.34-6.62-13.65,1.16,1.16,6.52s13.39,2.48,14.84-1.06h0Z"/>
      </g>
      <g>
        <path class="cls-7" d="M636.11,177.38c-2-1.28-3.8-4.03-5.39-6.96.24,1.04-.05,2.07-.88,2.67-1.26.92-3.28.51-4.51-.91s-1.2-3.32.06-4.24c1.25-.91,3.25-.52,4.48.88-.69-1.35-1.34-2.68-1.94-3.87-.04.49-.19.95-.5,1.34-1.27,1.63-4.53,1.49-7.28-.31-2.75-1.8-3.94-4.59-2.67-6.23.91-1.16,2.81-1.42,4.83-.83-.85-.44-1.81-.92-2.82-1.4-1.17,1.58-4.28,1.74-7.13.3-2.53-1.28-4.02-3.38-3.75-5.06-1.7-.71-2.81-1.15-2.81-1.15,0,0-4.99,5.15-1.52,8.8.04.04.08.08.12.12-.06-.56.02-1.1.31-1.57,1.06-1.76,4.3-1.98,7.27-.48,2.96,1.49,4.51,4.13,3.45,5.89-.19.33-.47.61-.81.83.71.27,1.36.56,1.93.86,1.11-.32,2.58-.07,3.86.77,1.85,1.22,2.57,3.2,1.62,4.42-.34.44-.86.72-1.46.85,1.68,2.28,4.38,4.87,7.87,8.07,5.63,5.17,7.93,7.24,7.93,7.24l6.64-4.66s-2.24-2.41-6.9-5.38h0Z"/>
        <path class="cls-13" d="M612.38,157.83c2.85,1.44,5.96,1.28,7.13-.3-3.65-1.74-8.06-3.6-10.88-4.76-.27,1.68,1.22,3.79,3.75,5.06Z"/>
        <path class="cls-13" d="M615.44,164.38c1.06-1.76-.5-4.4-3.45-5.89-2.96-1.49-6.21-1.28-7.27.48-.28.48-.37,1.01-.31,1.57,2.19,2.17,6.81,3.34,10.21,4.66.34-.21.61-.49.81-.83Z"/>
        <path class="cls-13" d="M617.51,159.76c-1.27,1.63-.07,4.42,2.67,6.23,2.75,1.8,6,1.95,7.28.31.31-.39.46-.85.5-1.34-.91-1.79-1.71-3.27-2.41-3.99-.5-.51-1.67-1.22-3.21-2.03-2.01-.6-3.92-.33-4.82.83Z"/>
        <path class="cls-13" d="M620.42,166.84c-1.28-.84-2.75-1.1-3.86-.77,1.16.61,1.95,1.28,2.11,2.13.22,1.24.88,2.52,1.91,3.92.6-.13,1.12-.41,1.46-.85.95-1.22.23-3.21-1.62-4.42h0Z"/>
        <path class="cls-13" d="M625.4,167.95c-1.26.92-1.29,2.82-.06,4.24s3.25,1.83,4.51.91c.83-.6,1.12-1.63.88-2.67-.29-.53-.56-1.06-.84-1.6-1.22-1.4-3.22-1.8-4.48-.88h0Z"/>
        <path class="cls-19" d="M643.64,183.11l1.92,3.49-7.81,3.67-2.05-3.33s5.57-4.91,7.95-3.82Z"/>
      </g>
      <path class="cls-6" d="M567.77,150.25l-5.48,2.8s-1.37.15.19,12.94c1.06,8.77,7.41,11.73,6.01,16.14-4.57,14.34-4.12,14.6-2.82,30.16,2.01,24.16,5.02,29.88,5.02,29.88,0,0,7.2-2.4,15.52-2.9,8.32-.5,15.43,5.85,25.01.48,9.59-5.37,10.49-5.7,12.32-8.46,1.84-2.76-13.98-1.67-13.61-9.13.37-7.46,3.09-17.83,2.2-22.14-3.94-19.33-12.31-13-8.41-22.2,4.39-10.34,6.91-25.97,6.91-25.97,0,0-1.41-.29-4.29-2.42-.4-.3-3.55,4.7-4.6,9.31-1.64,7.21-5.61,6.86-5.61,6.86,0,0-17,.22-20.85-.34-3.84-.54-7.52-15.01-7.52-15.01Z"/>
      <g>
        <polygon class="cls-14" points="625.52 265.65 649.87 131.98 654.19 132.65 629.85 266.32 625.52 265.65"/>
        <path class="cls-4" d="M646.71,103.54s-4.98,5.32-3.9,17.17c1.08,11.86,23.39,7.05,23.39,7.05l4.42-22.7"/>
        <path class="cls-9" d="M643.2,122.57s-.6-.95-.31,6.53c.28,7.26,7.41,9.1,7.41,9.1,0,0,10.15.77,13.67-5.78,2.33-4.34,2.94-7.24,2.94-7.24"/>
        <path class="cls-1" d="M649.65,104.27c-.79,1.16-1.39,2.53-1.85,3.77-.65,1.51-1.23,3.22-1.58,4.87-.93,3.11-.59,6.39.28,9.48-.21-3.43-.3-6.92.69-10.25.6-2.63,1.3-5.3,2.49-7.73.19-.35.4-.69.64-1.01-.25.27-.44.58-.67.88h0Z"/>
        <path class="cls-1" d="M653.4,105.46c.2-.32.51-.58.8-.84-.23.19-.45.39-.68.6-2.25,2.78-3.6,6.11-4.37,9.48-.29,2.59-.06,5.31.99,7.74-.48-2.74-.28-5.52-.04-8.27.78-3.13,1.57-5.96,3.3-8.72h0Z"/>
        <path class="cls-1" d="M656.05,106.49c-1.63,2.33-2.8,4.98-3.39,7.71-.24,1.15-.14,2.33-.08,3.5.06,1.84.31,3.66.91,5.42-.31-3.07-.06-6.16.15-9.22.42-2.6,1.23-5,2.46-7.32.21-.31.5-.6.65-.95-.18.32-.45.59-.69.88h0Z"/>
        <path class="cls-1" d="M660.01,106.19c-2.44,3.38-3.87,7.05-4.3,11.08-.29,1.89.13,3.76.28,5.65.23-1.79.11-3.6.46-5.37.78-3.96,1.62-7.79,3.64-11.31.28-.37.58-.71.93-1.03-.36.29-.68.63-1,.97h0Z"/>
        <path class="cls-1" d="M663.34,106.87c-.83,1.18-1.64,2.39-2.3,3.66-.7,1.77-1.36,3.57-1.8,5.41-.42,2.43-.89,4.93-.21,7.36-.16-2.93.75-5.77,1.39-8.61.5-1.63.92-3.28,1.46-4.9.52-1.09,1.1-2.14,1.71-3.19.12-.25.25-.49.42-.71-.26.31-.45.65-.67.99h0Z"/>
        <path class="cls-1" d="M667.52,105.83c.08-.08.14-.18.19-.27-.08.11-.16.22-.27.31-.92,1.76-2.14,3.41-2.92,5.24-1.67,4.15-2.41,8.69-1.81,13.1.44-4.39,1.51-8.69,2.55-12.98.5-1.85,1.47-3.49,2.24-5.37,0,0,0-.03,0-.03h0Z"/>
      </g>
    </g>
  </g>
</svg>